<svg width="42" height="42" viewBox="0 0 42 42" fill="none" xmlns="http://www.w3.org/2000/svg">
<path d="M21.0001 29.3333L29.3334 21L21.0001 12.6667L18.0834 15.5833L21.4167 18.9167H12.6667V23.0833H21.4167L18.0834 26.4167L21.0001 29.3333ZM21.0001 41.8333C18.1181 41.8333 15.4098 41.2864 12.8751 40.1927C10.3404 39.0989 8.1355 37.6146 6.2605 35.7396C4.3855 33.8646 2.90112 31.6597 1.80737 29.125C0.713623 26.5903 0.166748 23.8819 0.166748 21C0.166748 18.118 0.713623 15.4097 1.80737 12.875C2.90112 10.3403 4.3855 8.13541 6.2605 6.26041C8.1355 4.38541 10.3404 2.90103 12.8751 1.80728C15.4098 0.713531 18.1181 0.166656 21.0001 0.166656C23.882 0.166656 26.5904 0.713531 29.1251 1.80728C31.6598 2.90103 33.8647 4.38541 35.7397 6.26041C37.6147 8.13541 39.099 10.3403 40.1928 12.875C41.2865 15.4097 41.8334 18.118 41.8334 21C41.8334 23.8819 41.2865 26.5903 40.1928 29.125C39.099 31.6597 37.6147 33.8646 35.7397 35.7396C33.8647 37.6146 31.6598 39.0989 29.1251 40.1927C26.5904 41.2864 23.882 41.8333 21.0001 41.8333ZM21.0001 37.6667C25.6529 37.6667 29.5938 36.0521 32.823 32.8229C36.0522 29.5937 37.6667 25.6528 37.6667 21C37.6667 16.3472 36.0522 12.4062 32.823 9.17707C29.5938 5.94791 25.6529 4.33332 21.0001 4.33332C16.3473 4.33332 12.4063 5.94791 9.17717 9.17707C5.948 12.4062 4.33342 16.3472 4.33342 21C4.33342 25.6528 5.948 29.5937 9.17717 32.8229C12.4063 36.0521 16.3473 37.6667 21.0001 37.6667Z" fill="#E41F25"/>
</svg>
