<svg width="42" height="42" viewBox="0 0 42 42" fill="none" xmlns="http://www.w3.org/2000/svg">
<path d="M20.9999 29.3333L12.6666 21L20.9999 12.6667L23.9166 15.5833L20.5833 18.9167H29.3333V23.0833H20.5833L23.9166 26.4167L20.9999 29.3333ZM20.9999 41.8333C23.8819 41.8333 26.5902 41.2864 29.1249 40.1927C31.6596 39.0989 33.8645 37.6146 35.7395 35.7396C37.6145 33.8646 39.0989 31.6597 40.1926 29.125C41.2864 26.5903 41.8333 23.8819 41.8333 21C41.8333 18.118 41.2864 15.4097 40.1926 12.875C39.0989 10.3403 37.6145 8.13541 35.7395 6.26041C33.8645 4.38541 31.6596 2.90103 29.1249 1.80728C26.5902 0.713531 23.8819 0.166656 20.9999 0.166656C18.118 0.166656 15.4096 0.713531 12.8749 1.80728C10.3402 2.90103 8.13533 4.38541 6.26033 6.26041C4.38533 8.13541 2.90096 10.3403 1.80721 12.875C0.713459 15.4097 0.166584 18.118 0.166584 21C0.166584 23.8819 0.713459 26.5903 1.80721 29.125C2.90096 31.6597 4.38533 33.8646 6.26033 35.7396C8.13533 37.6146 10.3402 39.0989 12.8749 40.1927C15.4096 41.2864 18.118 41.8333 20.9999 41.8333ZM20.9999 37.6667C16.3471 37.6667 12.4062 36.0521 9.177 32.8229C5.94783 29.5937 4.33325 25.6528 4.33325 21C4.33325 16.3472 5.94783 12.4062 9.177 9.17707C12.4062 5.94791 16.3471 4.33332 20.9999 4.33332C25.6527 4.33332 29.5937 5.94791 32.8228 9.17707C36.052 12.4062 37.6666 16.3472 37.6666 21C37.6666 25.6528 36.052 29.5937 32.8228 32.8229C29.5937 36.0521 25.6527 37.6667 20.9999 37.6667Z" fill="#E41F25"/>
</svg>
