<svg width="287" height="357" viewBox="0 0 287 357" fill="none" xmlns="http://www.w3.org/2000/svg">
<g filter="url(#filter0_d_31_40)">
<path d="M198.136 0.00745462C198.042 -0.00297562 197.951 -0.00292352 197.863 0.0105555C197.758 0.0258789 197.656 0.0612523 197.554 0.105271C197.279 0.160557 197.027 0.288856 196.8 0.501212C195.939 1.30747 195.478 2.75571 195.042 6.51951C195.038 6.55527 195.034 6.58614 195.03 6.62354C194.905 7.7131 194.782 8.96261 194.653 10.4797C194.536 11.8483 194.479 16.6521 194.471 22.5722C194.44 25.9612 194.453 29.6125 194.506 33.4357C194.558 40.9989 194.666 48.3796 194.824 52.0178C194.955 55.0407 195.107 58.0414 195.274 60.9932C195.325 62.0675 195.379 63.0596 195.436 63.9426C195.463 64.3602 195.497 64.7989 195.526 65.222C196.55 81.5544 198.026 95.4974 199.279 99.7768C199.285 99.7986 199.288 99.8146 199.292 99.835C199.305 99.9324 199.32 100.035 199.328 100.103C199.294 100.346 198.965 100.318 198.017 100.101C191.245 98.5541 176.127 98.5711 162.965 100.141C153.327 101.29 138.929 104.972 134.032 107.539L133.597 107.767C133.157 107.943 132.775 108.084 132.497 108.161C132.157 108.231 131.904 108.237 131.696 108.189L130.719 107.521C128.35 105.898 123.631 103.244 118.649 100.647C118.091 100.347 117.542 100.054 117.053 99.8C115.343 98.9131 113.562 98.0364 111.725 97.1729C110.061 96.3724 108.454 95.6196 107.045 95.0037C85.6737 85.6587 59.6587 78.8842 38.0352 77.0327C35.6068 76.8248 32.6225 76.7248 29.6882 76.7066C28.9285 76.6831 28.2221 76.6695 27.6138 76.6701C26.5082 76.6713 25.4627 76.7071 24.4588 76.7594C23.7846 76.7798 23.145 76.8071 22.5524 76.8456C20.0721 76.9763 18.2076 77.189 17.6664 77.4713C17.3005 77.6621 17.0014 77.8473 16.759 78.0357C16.187 78.3817 15.9025 78.7964 15.9025 79.2825C15.9025 79.4872 15.9745 79.7484 16.1043 80.0527C16.1831 80.317 16.3031 80.6066 16.4628 80.9292C16.8345 81.68 18.095 83.1933 19.7108 84.9305C20.9911 86.3457 22.4971 87.8635 24.101 89.3348C25.557 90.7077 26.9801 91.9707 28.1141 92.84C31.7583 95.6339 39.2354 100.909 39.5509 100.909C39.6786 100.909 40.3053 101.295 40.9435 101.765C42.3297 102.787 45.3614 104.605 49.178 106.763C50.1532 107.374 52.3866 108.599 55.1492 110.07C63.3629 114.533 72.9902 119.465 78.6828 121.996C80.4976 122.803 82.4214 123.635 84.3682 124.467C85.4747 124.959 86.9165 125.569 88.6489 126.276C96.6985 129.635 104.548 132.69 107.803 133.668C109.019 134.033 109.579 134.266 109.762 134.543C109.738 134.773 109.681 135.127 109.591 135.587C108.021 140.312 106.16 152.815 106.144 159.043C106.143 159.389 106.132 159.715 106.116 160.02C106.099 160.193 106.086 160.304 106.07 160.454C105.963 161.12 105.839 161.516 105.695 161.659C105.461 161.594 105.027 161.429 104.467 161.199C103.757 160.886 102.836 160.463 101.861 159.994C99.8781 159.041 97.8262 158.122 97.3012 157.951C96.7761 157.781 95.4825 157.236 94.4266 156.741C91.9793 155.593 87.689 153.928 81.3714 151.673C63.9792 145.465 43.9171 140.629 26.6546 138.483C24.6541 138.234 21.5263 137.969 18.2634 137.738C15.7326 137.528 13.237 137.367 10.7901 137.265C9.63549 137.217 8.72672 137.189 7.92751 137.175C6.11874 137.118 4.84394 137.119 4.61796 137.209C4.34698 137.316 4.17277 137.534 4.09299 137.893C4.0245 138.06 4 138.257 4 138.494C4 138.498 4.00077 138.507 4.00077 138.511C4.00069 138.517 4 138.523 4 138.529C4 138.698 4.05515 138.996 4.13424 139.351C4.31292 140.441 4.75507 142.012 5.48791 144.255C8.50873 153.498 13.2861 165.505 18.2919 176.818V176.818C18.4782 177.295 18.9867 178.426 19.6448 179.854C23.8485 189.17 28.1175 197.782 31.5638 203.662C32.8013 205.773 33.4456 207.012 34.1407 207.723C34.2933 207.937 34.4106 208.082 34.4714 208.121C34.489 208.131 34.5646 208.144 34.6657 208.155C35.7106 208.809 37.1483 208.611 40.6698 208.445C41.2265 208.419 42.0712 208.404 43.0982 208.397C45.1183 208.427 47.2993 208.452 49.6723 208.467C51.7918 208.481 53.8317 208.505 55.8339 208.535C63.8081 208.693 72.3391 208.958 75.2277 209.2C76.0725 209.271 78.4483 209.457 80.5074 209.613C80.9946 209.65 81.4551 209.692 81.8828 209.737C83.1179 209.902 83.9138 210.077 84.1582 210.257C84.1524 210.407 84.111 210.675 84.0442 211.02C83.9384 211.415 83.8043 211.895 83.652 212.406C80.3941 223.359 73.1159 249.699 73.1159 250.537C73.1159 250.614 73.1289 250.688 73.1474 250.761C73.1372 250.817 73.1159 250.912 73.1159 250.932C73.1159 251.034 73.265 251.176 73.5606 251.359C74.3167 252.017 76.2027 252.81 80.4114 254.358C87.4045 256.931 96.2311 260.339 98.3391 261.267C98.4095 261.307 98.4881 261.348 98.5536 261.388C99.0223 261.674 99.358 262.007 99.692 262.625C99.8107 262.867 99.9165 263.125 99.9927 263.382C100.237 264.203 100.789 265.816 101.22 266.965C101.269 267.095 101.308 267.205 101.35 267.322C101.614 268.233 101.75 268.846 101.776 269.317C101.752 269.604 101.676 269.878 101.546 270.202C101.14 271.217 100.835 271.383 98.9091 271.631C97.7076 271.786 96.4326 272.132 95.1923 272.599C94.3956 272.868 93.6287 273.212 92.8877 273.635C90.8209 274.723 89.0918 276.092 88.3414 277.402C87.7951 277.889 87.3393 278.231 87.1033 278.312C86.7926 277.962 86.2995 277.297 85.7871 276.514C85.1763 275.58 83.7032 273.785 82.2421 272.161C82.0479 271.943 81.8538 271.73 81.6601 271.523C81.5499 271.404 81.4361 271.272 81.3279 271.158C78.6488 268.319 78.0621 267.874 76.9316 267.86C76.9258 267.86 76.9169 267.857 76.9114 267.857C76.9056 267.857 76.8983 267.857 76.8926 267.857C76.8868 267.857 76.8825 267.857 76.8761 267.857C76.8602 267.857 76.8455 267.858 76.8296 267.858C76.8238 267.858 76.818 267.857 76.8124 267.857C76.7858 267.857 76.7594 267.861 76.7329 267.863C75.1782 267.918 74.3098 268.874 73.9956 270.879C73.8826 271.599 73.57 272.403 73.2546 272.83C73.146 272.916 73.0394 273.037 72.9359 273.187C72.2237 274.006 71.8035 275.676 71.6609 277.966C71.6135 278.495 71.5799 279.031 71.5799 279.564C71.5799 280.28 71.6131 281.062 71.6617 281.875C71.8994 286.99 72.9959 293.693 74.8805 300.651C75.4135 302.618 76.0919 305.149 76.3879 306.275C77.2509 309.556 78.7994 313.979 80.5599 318.393C81.0551 319.825 82.0159 322.084 83.16 324.545C84.5498 327.648 85.934 330.449 87.1145 332.45C90.6603 338.459 93.5333 341.736 96.411 343.054C98.3613 343.947 99.5913 343.798 100.825 342.521L101.636 341.682L104.175 342.54C104.235 342.56 104.312 342.581 104.375 342.602C105.283 342.975 106.242 343.253 107.442 343.453C108.025 343.592 108.582 343.716 109.018 343.79C111.955 344.291 125.279 344.282 131.288 343.775C133.823 343.561 138 343.269 140.571 343.125L145.247 342.864L145.031 344.522C144.911 345.451 145.009 346.178 145.296 346.706C145.62 347.358 146.231 347.69 147.108 347.702C147.959 347.736 149.042 347.479 150.339 346.901L152.252 346.05L153.504 347.464C153.729 347.803 153.97 348.058 154.229 348.236C154.643 348.652 154.982 348.946 155.076 348.946C155.55 348.946 157.001 348.066 157.86 347.256L158.295 346.846C158.471 346.728 158.606 346.66 158.72 346.639C158.795 346.649 158.869 346.672 158.944 346.708L159.918 347.716C161.33 349.178 161.793 349.117 164.694 347.095L166.599 345.768L166.854 346.057L167.894 347.352C169.791 349.714 170.965 349.579 173.8 346.676L175.491 344.942C175.781 344.715 176.025 344.558 176.226 344.468L177.843 344.942C178.765 345.213 179.451 345.396 180.029 345.508L181.365 345.916L182.292 345.421C182.701 345.279 183.143 345.065 183.697 344.775L185.725 343.711L187.881 345.89C187.935 345.944 187.985 345.991 188.039 346.044C188.495 346.522 188.937 346.92 189.362 347.249C191.687 349.147 193.052 348.905 193.737 346.537C193.808 346.292 193.869 346.114 193.934 345.907C194.092 345.444 194.243 345.099 194.332 345.001C194.45 345.044 195.596 345.714 196.996 346.561C198.441 347.436 199.873 348.151 200.176 348.151C200.917 348.151 202.132 346.976 202.132 346.258C202.132 346.255 202.133 346.252 202.133 346.249C202.299 346.05 202.475 345.931 202.632 345.918C202.688 345.935 202.738 345.945 202.804 345.973C203.174 346.135 204.39 346.356 205.507 346.464C207.495 346.657 207.547 346.635 207.991 345.418C208.148 344.987 208.269 344.706 208.448 344.522C208.465 344.508 208.483 344.499 208.499 344.487C208.716 344.362 209.026 344.271 209.467 344.201C209.523 344.197 209.572 344.189 209.632 344.188C209.634 344.188 209.635 344.188 209.638 344.188C209.784 344.182 209.946 344.179 210.125 344.179C210.13 344.179 210.133 344.178 210.137 344.178C210.209 344.177 210.268 344.176 210.346 344.176C210.477 344.176 210.593 344.164 210.717 344.158C210.775 344.155 210.839 344.154 210.895 344.15C212.654 344.021 213.651 343.272 213.652 342.028C213.653 341.513 213.695 341.316 216.301 341.233L219.521 341.321C222.945 341.415 227.185 341.312 231.661 341.058C237.455 340.888 241.614 340.461 248.977 339.43L253.42 338.808L254.153 338.711L254.229 338.781L255.121 339.794C256.054 340.854 257.081 341.494 258.206 341.721C258.221 341.724 258.238 341.725 258.253 341.728C259.315 341.929 260.461 341.766 261.698 341.23C263.052 340.643 264.766 339.006 266.543 336.736C267.633 335.384 268.701 333.823 269.737 332.074C271.028 329.943 272.259 327.597 273.313 325.197C278.772 312.757 282.308 296.759 282.832 285.436C282.988 283.449 283.051 281.94 282.953 281.609C282.932 281.539 282.905 281.351 282.875 281.114C282.732 276.601 281.936 273.285 280.377 271.956C279.957 271.598 279.352 270.759 278.922 269.973C278.895 269.585 278.643 269.167 278.28 268.803C277.942 268.292 277.612 268.092 277.032 267.993C276.872 267.936 276.71 267.896 276.552 267.874C276.527 267.871 276.504 267.871 276.48 267.867C276.441 267.863 276.403 267.857 276.366 267.857C276.362 267.857 276.355 267.858 276.35 267.86C276.338 267.86 276.327 267.857 276.315 267.857C276.156 267.857 275.994 267.882 275.83 267.926C275.16 267.994 274.718 268.331 273.896 269.233C273.654 269.499 273.403 269.735 273.165 269.93C272.959 270.085 272.758 270.229 272.578 270.339C272.377 270.448 272.212 270.497 272.117 270.459C271.702 270.294 271.137 270.605 270.472 271.318C270.027 271.751 269.543 272.406 268.999 273.306C268.327 274.372 267.604 275.704 266.859 277.275C265.837 279.433 265.072 281.013 264.771 281.606C264.658 281.801 264.55 281.986 264.487 282.068C264.28 281.964 263.22 280.961 261.982 279.687C257.634 275.212 253.186 272.07 250.122 271.308C249.432 271.137 248.878 270.467 248.183 268.965C247.648 267.809 245.899 264.18 244.297 260.901C238.863 249.781 235.729 239.704 234.963 230.89C234.839 229.469 234.649 227.544 234.538 226.614C234.495 226.25 234.471 225.968 234.479 225.706C234.535 225.331 234.633 225.006 234.769 224.698C235.13 224.067 235.879 223.242 237.346 221.645C239 219.843 240.95 217.564 241.679 216.58C242.409 215.596 243.104 214.702 243.223 214.593C243.949 213.927 245.755 210.943 247.527 207.688C248.426 206.123 249.218 204.59 249.895 203.113C250.643 201.579 251.252 200.216 251.576 199.289C252.525 196.574 253.246 191.772 253.167 188.695C253.02 182.916 252.146 179.125 248.597 168.881C245.151 158.93 244.166 155.324 242.027 144.832C240.428 136.991 239.27 133.04 236.785 126.945L234.924 122.38C234.868 121.805 234.828 121.071 234.804 120.123L234.793 119.559C234.779 118.764 234.769 117.888 234.769 116.808C234.769 114.843 234.73 112.679 234.658 110.44C234.613 108.345 234.552 106.413 234.465 104.553C233.906 90.0073 232.247 78.4189 228.64 63.0908C223.436 40.9737 213.445 17.7634 203.691 5.13044C201.747 2.61237 200.221 1.0642 199.021 0.419515C198.672 0.171183 198.388 0.0372402 198.137 0.00726963L198.136 0.00745462ZM111.445 217.24L114.548 223.664L108.73 248.158L96.3172 241.733L111.445 217.24Z" fill="black"/>
<path d="M155.296 348.907C155.209 348.933 155.135 348.946 155.075 348.946C155.076 348.946 155.076 348.947 155.076 348.947C155.135 348.947 155.209 348.933 155.296 348.907Z" fill="#FFD73E"/>
<path d="M200.011 348.119C200.082 348.14 200.138 348.152 200.176 348.152C200.222 348.152 200.27 348.146 200.32 348.137C200.27 348.146 200.222 348.151 200.175 348.151C200.137 348.151 200.082 348.14 200.011 348.119Z" fill="#FFD73E"/>
<path d="M147.789 347.672C147.547 347.701 147.32 347.71 147.107 347.701C146.997 347.7 146.893 347.694 146.791 347.682C146.893 347.694 146.998 347.701 147.108 347.702C147.321 347.711 147.547 347.701 147.789 347.672Z" fill="#FFD73E"/>
<path d="M158.53 346.706C158.46 346.74 158.382 346.786 158.294 346.845L157.859 347.255C157.43 347.66 156.853 348.083 156.323 348.404C156.853 348.083 157.43 347.661 157.86 347.256L158.295 346.846C158.383 346.787 158.46 346.74 158.53 346.706Z" fill="#FFD73E"/>
<path d="M158.719 346.638C158.662 346.649 158.6 346.672 158.53 346.706C158.6 346.672 158.663 346.65 158.72 346.639C158.795 346.65 158.869 346.673 158.944 346.709L158.944 346.708C158.868 346.672 158.794 346.649 158.719 346.638Z" fill="#FFD73E"/>
<path d="M202.258 346.116C202.216 346.155 202.174 346.2 202.132 346.249C202.132 346.252 202.131 346.255 202.131 346.258C202.131 346.303 202.127 346.35 202.118 346.398C202.127 346.35 202.132 346.303 202.132 346.259C202.132 346.255 202.133 346.252 202.133 346.249C202.174 346.2 202.216 346.155 202.258 346.116Z" fill="#FFD73E"/>
<path d="M152.251 346.049L150.338 346.901C150.176 346.973 150.018 347.04 149.862 347.102C150.018 347.04 150.177 346.974 150.339 346.901L152.252 346.05L152.251 346.049Z" fill="#FFD73E"/>
<path d="M166.598 345.767L164.694 347.095C164.331 347.347 164.006 347.57 163.713 347.762C164.006 347.57 164.332 347.348 164.694 347.095L166.599 345.768L166.598 345.767Z" fill="#FFD73E"/>
<path d="M194.159 345.317C194.09 345.473 194.012 345.675 193.934 345.906C193.868 346.113 193.807 346.291 193.736 346.537C193.694 346.685 193.648 346.824 193.6 346.956C193.648 346.824 193.694 346.685 193.737 346.537C193.808 346.292 193.869 346.114 193.934 345.907C194.013 345.676 194.09 345.473 194.159 345.317Z" fill="#FFD73E"/>
<path d="M194.331 345C194.309 345.025 194.283 345.065 194.254 345.118C194.283 345.065 194.31 345.025 194.332 345.001C194.332 345.001 194.331 345 194.331 345Z" fill="#FFD73E"/>
<path d="M208.21 344.877C208.138 345.025 208.069 345.203 207.99 345.419C207.935 345.571 207.886 345.704 207.838 345.821C207.886 345.704 207.935 345.571 207.991 345.419C208.069 345.203 208.138 345.025 208.21 344.877Z" fill="#FFD73E"/>
<path d="M208.448 344.522C208.358 344.614 208.283 344.73 208.211 344.877C208.283 344.73 208.359 344.614 208.448 344.522C208.448 344.522 208.448 344.522 208.448 344.522Z" fill="#FFD73E"/>
<path d="M209.467 344.201C209.136 344.254 208.879 344.318 208.679 344.399C208.878 344.318 209.136 344.254 209.467 344.201Z" fill="#FFD73E"/>
<path d="M210.116 344.179C209.94 344.179 209.782 344.182 209.638 344.187C209.635 344.187 209.633 344.187 209.632 344.187C209.571 344.191 209.523 344.197 209.467 344.201C209.523 344.197 209.572 344.19 209.632 344.188C209.634 344.188 209.635 344.188 209.637 344.188C209.781 344.182 209.94 344.179 210.116 344.179Z" fill="#FFD73E"/>
<path d="M211.518 344.072C211.322 344.108 211.114 344.134 210.894 344.15C210.838 344.154 210.775 344.156 210.717 344.159C210.775 344.156 210.839 344.155 210.895 344.151C211.114 344.134 211.322 344.108 211.518 344.072Z" fill="#FFD73E"/>
<path d="M175.892 344.653C175.769 344.732 175.636 344.828 175.491 344.942L173.799 346.675C173.622 346.857 173.451 347.028 173.286 347.188C173.451 347.028 173.622 346.858 173.799 346.676L175.491 344.943C175.636 344.829 175.769 344.732 175.892 344.653Z" fill="#FFD73E"/>
<path d="M185.724 343.711L183.696 344.774C183.142 345.065 182.701 345.278 182.291 345.421L181.364 345.915L180.028 345.508C179.45 345.396 178.764 345.212 177.842 344.942L176.226 344.468C176.125 344.512 176.014 344.574 175.892 344.653C176.014 344.574 176.126 344.513 176.226 344.468L177.842 344.943C178.765 345.213 179.451 345.396 180.029 345.509L181.365 345.916L182.292 345.422C182.701 345.279 183.143 345.066 183.697 344.775L185.725 343.711L185.724 343.711Z" fill="#FFD73E"/>
<path d="M106.743 343.318C106.969 343.366 107.198 343.413 107.442 343.454C108.025 343.592 108.582 343.716 109.018 343.791C109.201 343.822 109.425 343.851 109.685 343.878C109.425 343.851 109.2 343.821 109.017 343.79C108.581 343.715 108.024 343.591 107.441 343.453C107.197 343.412 106.969 343.366 106.743 343.318Z" fill="#FFD73E"/>
<path d="M135.916 343.423C134.233 343.541 132.555 343.667 131.288 343.774C130.537 343.838 129.671 343.893 128.726 343.941C129.672 343.893 130.537 343.838 131.288 343.775C132.555 343.668 134.233 343.541 135.916 343.423Z" fill="#FFD73E"/>
<path d="M145.246 342.864L140.57 343.124C139.285 343.196 137.598 343.306 135.916 343.423C137.598 343.306 139.286 343.197 140.571 343.125L145.246 342.864V342.864Z" fill="#FFD73E"/>
<path d="M213.659 341.849C213.653 341.904 213.651 341.963 213.651 342.027C213.651 342.105 213.648 342.181 213.64 342.255C213.648 342.181 213.652 342.106 213.652 342.028C213.652 341.964 213.652 341.904 213.659 341.849Z" fill="#FFD73E"/>
<path d="M101.635 341.681L100.824 342.52C100.747 342.6 100.671 342.676 100.593 342.747C100.671 342.676 100.748 342.601 100.825 342.521L101.636 341.682L104.175 342.54C104.235 342.56 104.312 342.582 104.375 342.602L104.374 342.601C104.312 342.581 104.234 342.559 104.174 342.539L101.635 341.681Z" fill="#FFD73E"/>
<path d="M257.788 341.616C257.925 341.658 258.065 341.693 258.205 341.722C258.221 341.725 258.238 341.726 258.253 341.729C258.238 341.725 258.22 341.724 258.205 341.721C258.064 341.692 257.925 341.658 257.788 341.616Z" fill="#FFD73E"/>
<path d="M214.787 341.319C214.231 341.377 213.948 341.457 213.803 341.572C213.948 341.457 214.232 341.377 214.787 341.319Z" fill="#FFD73E"/>
<path d="M216.3 341.232C215.974 341.243 215.689 341.255 215.438 341.27C215.689 341.255 215.975 341.244 216.301 341.233L219.52 341.321C221.233 341.368 223.149 341.365 225.196 341.319C223.149 341.365 221.232 341.367 219.52 341.32L216.3 341.232Z" fill="#FFD73E"/>
<path d="M233.766 340.982C233.083 341.012 232.384 341.036 231.66 341.058C230.541 341.121 229.437 341.175 228.357 341.219C229.437 341.175 230.542 341.122 231.661 341.059C232.385 341.037 233.083 341.012 233.766 340.982Z" fill="#FFD73E"/>
<path d="M254.152 338.711L253.419 338.807L248.977 339.429C248.056 339.558 247.186 339.678 246.356 339.788C247.186 339.678 248.057 339.559 248.977 339.43L253.42 338.808L254.153 338.712L254.152 338.711Z" fill="#FFD73E"/>
<path d="M267.356 335.684C267.086 336.048 266.815 336.399 266.543 336.737C266.32 337.02 266.099 337.294 265.88 337.557C266.099 337.294 266.321 337.02 266.543 336.737C266.816 336.398 267.086 336.048 267.356 335.684Z" fill="#FFD73E"/>
<path d="M282.874 281.114C282.904 281.351 282.932 281.539 282.953 281.609C283.001 281.775 283.011 282.234 282.988 282.901C283.011 282.235 283.002 281.775 282.953 281.609C282.933 281.539 282.904 281.351 282.874 281.114Z" fill="#FFD73E"/>
<path d="M86.8385 277.994C86.9364 278.117 87.0248 278.225 87.1025 278.312C87.1027 278.312 87.1031 278.312 87.1033 278.312C87.0256 278.225 86.9364 278.117 86.8385 277.994Z" fill="#FFD73E"/>
<path d="M85.4384 276.029C85.5589 276.195 85.6987 276.38 85.7863 276.514C86.0426 276.906 86.2944 277.267 86.5205 277.575C86.2944 277.267 86.0433 276.906 85.7871 276.514C85.6994 276.38 85.559 276.195 85.4384 276.029Z" fill="#FFD73E"/>
<path d="M80.4159 270.201C80.6905 270.485 80.9922 270.803 81.3271 271.158C81.4353 271.272 81.5492 271.404 81.6593 271.523C81.8531 271.73 82.0471 271.943 82.2413 272.161C82.9718 272.973 83.7056 273.828 84.3329 274.596C83.7056 273.828 82.9726 272.973 82.242 272.161C82.0479 271.943 81.8538 271.73 81.6601 271.523C81.5499 271.404 81.436 271.272 81.3278 271.158C80.993 270.803 80.6905 270.485 80.4159 270.201Z" fill="#FFD73E"/>
<path d="M234.923 224.451C234.865 224.537 234.814 224.619 234.769 224.698C234.7 224.852 234.642 225.01 234.593 225.177C234.642 225.01 234.701 224.852 234.769 224.698C234.814 224.619 234.865 224.537 234.923 224.451Z" fill="#FFD73E"/>
<path d="M238.617 220.232C238.191 220.714 237.758 221.195 237.345 221.645C236.978 222.044 236.656 222.395 236.374 222.707C236.656 222.395 236.979 222.044 237.345 221.645C237.759 221.195 238.191 220.715 238.617 220.232Z" fill="#FFD73E"/>
<path d="M242.68 215.259C242.4 215.619 242.043 216.088 241.679 216.58C241.496 216.826 241.238 217.153 240.927 217.533C241.238 217.153 241.497 216.826 241.679 216.58C242.044 216.088 242.4 215.619 242.68 215.259Z" fill="#FFD73E"/>
<path d="M243.543 214.238C243.421 214.39 243.313 214.509 243.222 214.593C243.163 214.647 242.96 214.898 242.68 215.258C242.959 214.898 243.163 214.647 243.223 214.593C243.314 214.509 243.421 214.39 243.543 214.238Z" fill="#FFD73E"/>
<path d="M82.725 209.862C83.2288 209.947 83.6167 210.034 83.8732 210.122C83.6166 210.034 83.2292 209.947 82.725 209.862Z" fill="#FFD73E"/>
<path d="M41.707 208.414C41.2979 208.422 40.9482 208.432 40.6698 208.445C39.7894 208.486 39.0393 208.53 38.3929 208.561C39.0393 208.53 39.7894 208.487 40.6698 208.446C40.9482 208.432 41.2979 208.422 41.707 208.414Z" fill="#FFD73E"/>
<path d="M43.0981 208.397C42.5846 208.4 42.116 208.406 41.7069 208.414C42.116 208.406 42.5846 208.401 43.0981 208.397C45.1182 208.427 47.2992 208.453 49.6722 208.467C51.7917 208.481 53.8316 208.505 55.8338 208.535C53.8317 208.505 51.7917 208.48 49.6722 208.466C47.2992 208.452 45.1182 208.426 43.0981 208.397Z" fill="#FFD73E"/>
<path d="M34.3402 207.987C34.3962 208.055 34.441 208.102 34.4714 208.121C34.4891 208.133 34.5645 208.144 34.6657 208.155C34.731 208.196 34.7971 208.233 34.8659 208.268C34.7971 208.233 34.731 208.195 34.6657 208.154C34.5646 208.143 34.489 208.131 34.4714 208.12C34.441 208.101 34.3962 208.055 34.3402 207.987Z" fill="#FFD73E"/>
<path d="M248.181 206.521C247.969 206.908 247.751 207.297 247.526 207.689C247.083 208.502 246.638 209.299 246.208 210.046C246.638 209.299 247.084 208.502 247.527 207.689C247.752 207.297 247.969 206.908 248.181 206.521Z" fill="#FFD73E"/>
<path d="M250.427 201.999C250.26 202.357 250.081 202.73 249.894 203.114C249.725 203.483 249.548 203.856 249.365 204.231C249.548 203.856 249.725 203.483 249.894 203.114C250.081 202.73 250.26 202.357 250.427 201.999Z" fill="#FFD73E"/>
<path d="M251.919 198.181C251.809 198.578 251.694 198.95 251.575 199.289C251.494 199.521 251.396 199.78 251.281 200.062C251.396 199.78 251.495 199.521 251.576 199.289C251.694 198.95 251.809 198.578 251.919 198.181Z" fill="#FFD73E"/>
<path d="M253.132 187.669C253.147 188.005 253.158 188.346 253.166 188.695C253.176 189.08 253.174 189.491 253.16 189.922C253.174 189.491 253.177 189.079 253.167 188.695C253.158 188.346 253.147 188.005 253.132 187.669Z" fill="#FFD73E"/>
<path d="M241.444 142.062C241.634 142.933 241.826 143.852 242.026 144.833C242.293 146.144 242.543 147.348 242.781 148.47C242.543 147.348 242.294 146.144 242.027 144.833C241.827 143.852 241.634 142.933 241.444 142.062Z" fill="black"/>
<path d="M234.851 121.391C234.871 121.765 234.895 122.093 234.923 122.38L236.784 126.945L234.924 122.38C234.896 122.093 234.871 121.765 234.851 121.391Z" fill="black"/>
<path d="M199.042 98.863C199.122 99.2042 199.201 99.5093 199.279 99.7768C199.286 99.7983 199.288 99.8143 199.293 99.8343C199.288 99.8141 199.286 99.7986 199.28 99.7768C199.202 99.5096 199.122 99.2039 199.042 98.863Z" fill="#FFD73E"/>
<path d="M197.563 89.2199C198.058 93.473 198.563 96.8151 199.042 98.8622C198.563 96.8151 198.058 93.4734 197.563 89.2199Z" fill="#FFD73E"/>
<path d="M195.036 56.5323C195.111 58.0293 195.19 59.5174 195.274 60.9932C195.325 62.0675 195.379 63.0596 195.436 63.9426C195.463 64.3603 195.497 64.7989 195.526 65.222C195.782 69.3051 196.067 73.2385 196.369 76.9093C196.067 73.2385 195.783 69.3051 195.526 65.222C195.498 64.7989 195.464 64.3602 195.437 63.9426C195.38 63.0596 195.326 62.0675 195.274 60.9932C195.191 59.5176 195.111 58.0291 195.036 56.5323Z" fill="#FFD73E"/>
<path d="M202.982 4.23158C203.212 4.51616 203.448 4.81584 203.691 5.1306C203.996 5.52538 204.301 5.92974 204.606 6.34482C204.301 5.93004 203.997 5.5251 203.692 5.1306C203.449 4.81584 203.212 4.51616 202.982 4.23158Z" fill="#FFD73E"/>
<path d="M194.556 39.0177C194.616 44.4548 194.706 49.2891 194.824 52.0178C194.889 53.529 194.961 55.0348 195.036 56.5315C194.961 55.0345 194.89 53.5293 194.825 52.0178C194.706 49.2891 194.616 44.4548 194.556 39.0177Z" fill="#FFD73E"/>
<path d="M194.522 14.8188C194.492 16.9308 194.475 19.6122 194.471 22.5722C194.44 25.9612 194.453 29.6125 194.506 33.4357C194.519 35.3265 194.536 37.2054 194.556 39.0177C194.536 37.2054 194.52 35.3265 194.507 33.4357C194.454 29.6125 194.441 25.9612 194.471 22.5722C194.476 19.6122 194.492 16.9308 194.522 14.8188Z" fill="#FFD73E"/>
<path d="M196.8 0.501215C195.939 1.30748 195.478 2.75571 195.042 6.51952C195.038 6.55526 195.034 6.58613 195.03 6.62355C194.905 7.71311 194.782 8.96264 194.653 10.4797C194.638 10.6508 194.625 10.875 194.612 11.1489C194.625 10.875 194.639 10.6508 194.654 10.4797C194.783 8.96264 194.906 7.71311 195.031 6.62355C195.035 6.58614 195.038 6.55527 195.043 6.51952C195.478 2.75572 195.94 1.30748 196.801 0.501215C196.801 0.501355 196.8 0.501075 196.8 0.501215Z" fill="#FFD73E"/>
<path d="M197.525 33.725L197.528 36.7513C197.529 37.4701 197.542 38.3614 197.561 39.3249L197.62 41.6345C197.893 51.5778 198.752 68.5576 199.243 72.4838C199.325 73.1397 199.503 75.1967 199.64 77.055C199.965 81.4928 201.599 94.6697 202.127 97.1043C202.754 100.004 203.044 100.327 205.861 101.266C208.38 102.107 210.388 103.11 211.458 103.944C211.801 104.184 212.025 104.391 212.088 104.55C212.492 105.076 212.345 105.47 211.471 105.598C211.011 105.666 209.715 105.435 208.591 105.084C205.34 104.069 195.67 102.145 192.127 101.808C191.555 101.754 190.941 101.709 190.309 101.667C187.941 101.559 185.212 101.537 181.588 101.54C179.303 101.542 177.275 101.574 175.346 101.628C170.929 101.826 166.603 102.186 163.158 102.689C152.409 104.257 148.969 105.012 141.079 107.535C139.185 108.141 137.884 108.543 137.031 108.875C136.797 108.972 136.584 109.064 136.399 109.149C135.15 109.78 135.766 110.259 137.152 111.777C137.228 111.86 137.291 111.933 137.363 112.014C137.778 112.43 138.142 112.859 138.453 113.283C139.582 114.688 139.994 115.575 139.73 116.017C139.279 116.773 138.3 116.387 136.341 114.68C130.505 109.595 114.484 100.686 101.913 95.5353C86.2873 89.1327 70.1596 84.4903 53.532 81.6091C49.0647 80.835 49.002 80.6081 48.7832 83.581C48.7534 84.6575 48.7323 85.9175 48.7323 87.3238C48.7323 88.7946 48.7425 89.937 48.7713 90.8974C49.1979 95.1466 50.4113 99.1088 52.3636 102.511L53.1436 103.871C53.6272 104.572 54.0838 105.098 54.4627 105.344C54.7197 105.51 55.3537 105.865 56.1479 106.299L64.4132 110.564C70.2174 113.559 75.0554 116.009 75.1645 116.009C75.2736 116.009 76.7147 116.659 78.3668 117.454C89.6419 122.878 111.408 131.139 117.391 132.265C119.785 132.716 120.256 132.892 120.33 133.634C120.336 133.661 120.345 133.688 120.345 133.715C120.345 133.738 120.339 133.759 120.337 133.782C120.34 133.829 120.345 133.869 120.345 133.92C120.345 134.436 120.059 134.712 119.481 134.754C119.165 134.777 118.715 134.784 118.212 134.778C117.716 134.797 117.136 134.778 116.471 134.72C115.483 134.67 114.564 134.594 114.056 134.509C113.806 134.495 113.605 134.488 113.436 134.487C112.71 134.866 112.03 137.372 110.977 143.346C110.079 148.443 109.502 154.482 109.296 160.179C109.279 163.501 109.361 167.507 109.545 172.436C109.577 172.763 109.607 173.095 109.644 173.406C109.803 174.74 110.12 180.225 110.349 185.595C111.013 201.176 111.855 207.069 114.374 213.742C115.447 216.585 116.708 219.174 118.189 221.552C119.59 223.768 121.199 225.823 123.029 227.728C124.401 229.157 125.943 230.535 127.578 231.821C129.792 233.519 132.259 235.082 135.016 236.54C136.669 237.414 139.012 238.447 140.222 238.834C141.367 239.2 142.108 239.583 142.408 239.953C142.548 240.111 142.615 240.272 142.615 240.457C142.615 240.524 142.604 240.586 142.587 240.645C142.521 241.637 141.169 241.637 137.624 240.73C131.439 239.148 122.816 233.079 118.188 227.05L116.65 225.048C116.498 224.938 116.369 224.901 116.262 224.954L116.039 226.454C115.889 227.47 115.588 229.911 115.372 231.879C114.577 239.106 109.325 258.446 105.613 267.821C105.204 268.853 104.854 269.815 104.695 270.325C104.658 270.48 104.634 270.613 104.62 270.726C104.709 270.907 105.396 271.217 106.234 271.446C109.314 272.285 113.459 274.623 115.199 276.503C116.924 278.367 117.301 279.441 116.567 279.551C116.139 279.744 115.337 279.509 114.505 278.888C114.12 278.687 113.695 278.443 113.226 278.148C110.777 276.607 109.342 275.856 107.596 275.303C107.49 275.27 107.384 275.241 107.278 275.209C106.75 275.052 106.194 274.907 105.562 274.763C100.145 273.533 95.5098 274.344 92.3407 276.987C92.0832 277.227 91.8161 277.485 91.521 277.784C91.2879 278.02 91.0671 278.257 90.855 278.492C90.6328 278.765 90.4208 279.05 90.2213 279.349C89.5669 280.328 89.3001 280.755 89.3206 281.158C89.3839 281.364 89.4858 281.623 89.6138 281.91C89.6501 281.973 89.6817 282.029 89.7241 282.1C91.3036 284.72 93.0885 288.598 94.1534 291.723C95.7238 296.331 95.8685 298.061 94.6851 298.061C94.2009 298.061 93.6367 297.293 92.8612 295.577C90.9602 291.371 88.3584 286.353 86.1363 282.413C84.2107 279.066 82.453 276.301 81.8481 275.81C81.7411 275.745 81.6701 275.754 81.6486 275.864C81.5583 276.324 82.5489 280.573 83.7372 284.896C84.0631 285.887 84.2236 286.566 84.2134 287.023C84.2222 287.386 84.1252 287.61 83.9135 287.824C83.5138 288.226 83.1841 288.043 82.2028 286.87C80.2001 284.478 78.1073 277.514 78.1073 273.241C78.1073 272.501 78.0076 271.908 77.8201 271.487C77.744 271.328 77.6628 271.196 77.5764 271.106C77.4135 270.938 77.2941 270.829 77.2051 270.799C77.1433 270.825 77.086 270.873 77.0349 270.944C76.9842 271.112 76.9687 271.498 76.9629 272.023C76.9832 272.452 77.0192 272.989 77.0723 273.706C77.323 277.093 77.9635 280.166 79.3139 284.461C79.7459 285.835 80.0019 287.222 79.8832 287.542C79.2855 289.154 77.2596 287.148 75.8544 283.553C75.1247 281.686 75.0762 281.641 75.0564 282.818C74.9981 286.308 77.0311 295.982 79.8892 305.812C84.5381 321.802 92.1811 336.398 97.3909 339.237C97.9961 339.567 98.266 339.681 98.533 339.487C98.6142 339.409 98.7067 339.305 98.8083 339.187C98.8998 339.063 98.9981 338.918 99.1187 338.728C99.7051 337.803 99.8201 336.508 99.9265 329.613C100.019 323.586 100.172 321.528 100.537 321.383C101.814 320.876 102.695 323.014 103.058 327.304C103.34 329.433 103.476 331.935 103.387 334.423L103.266 337.754L103.417 337.849L104.602 338.366C107.528 339.642 108.654 339.915 114.664 339.974C116.035 339.981 117.366 339.989 119.385 339.99C127.47 339.977 135.752 339.627 138.023 339.194C138.349 339.132 140.543 338.952 142.9 338.794C146.391 338.56 147.213 338.386 147.333 337.86C147.502 337.117 147.203 336.547 142.425 328.47C129.781 307.099 121.722 289.398 118.9 276.796C118.43 274.697 118.115 272.628 117.964 270.865C117.817 269.671 117.733 268.632 117.721 267.834C117.669 267.075 117.693 266.655 117.817 266.459C117.864 266.268 117.926 266.137 118.006 266.085C118.125 266.009 118.258 265.985 118.396 265.997C118.431 265.973 118.468 265.954 118.507 265.947C118.928 265.86 119.197 266.115 119.375 266.763C119.497 266.986 119.577 267.236 119.577 267.493C119.577 267.525 119.592 267.611 119.604 267.683C120.83 272.768 124.223 284.151 125.597 287.727C126.94 291.219 129.545 297.441 131.084 300.919C131.499 301.803 131.921 302.692 132.362 303.595C132.632 304.054 133.448 305.624 134.335 307.403C135.317 309.37 136.429 311.517 136.808 312.173C137.187 312.828 138.069 314.438 138.767 315.75C139.466 317.062 140.333 318.582 140.695 319.129C141.058 319.675 141.789 320.927 142.321 321.911C142.852 322.895 144.95 326.494 146.983 329.909C148.963 333.236 150.157 335.508 150.536 336.648C150.619 336.864 150.679 337.041 150.679 337.123C150.679 337.141 150.673 337.169 150.672 337.189C150.674 337.213 150.679 337.241 150.679 337.263C150.679 337.892 150.168 339.525 149.543 340.892C149.011 342.057 148.652 343.033 148.651 343.295C148.814 343.278 149.155 343.151 149.57 342.966C149.886 342.799 150.244 342.602 150.623 342.377C151.966 341.582 152.86 341.271 153.539 341.466C153.996 341.554 154.324 341.888 154.64 342.471C154.698 342.571 154.755 342.677 154.812 342.79L154.99 343.148C155.171 343.503 155.308 343.758 155.409 343.929C155.544 343.969 155.695 343.949 155.872 343.87L157.089 342.79C157.411 342.505 157.741 342.255 158.055 342.033C158.068 342.024 158.08 342.015 158.093 342.006C158.275 341.879 158.454 341.755 158.612 341.663C158.842 341.503 159.033 341.387 159.11 341.387C159.126 341.387 159.151 341.4 159.173 341.408C159.212 341.399 159.251 341.388 159.28 341.388C159.453 341.388 159.714 341.557 159.992 341.825C160.31 342.062 160.615 342.451 160.929 343.002C160.999 343.125 161.074 343.238 161.147 343.349C161.494 343.817 161.817 344.149 161.962 344.162C162.078 344.14 162.387 343.972 162.815 343.702C163.247 343.414 163.796 343.018 164.355 342.581C165.314 341.831 166.373 341.202 166.922 341.037C166.956 341.023 166.981 341.018 167.008 341.01C167.025 341.004 167.049 340.99 167.058 340.99C167.059 340.99 167.065 340.995 167.066 340.995C167.071 340.995 167.079 340.991 167.084 340.991C167.09 340.991 167.102 340.997 167.109 340.998C167.122 340.997 167.143 340.991 167.155 340.991C167.631 340.991 168.372 341.669 169.111 342.782C170.114 344.29 170.528 344.678 171.606 343.727C171.72 343.619 171.837 343.505 171.964 343.381C172.313 343.032 172.711 342.599 173.22 342.021C174.11 341.009 174.814 340.44 175.596 340.255C175.675 340.218 175.741 340.196 175.786 340.196C175.802 340.196 175.843 340.206 175.863 340.208C176.58 340.118 177.382 340.326 178.457 340.792C178.893 340.98 179.299 341.141 179.6 341.25C179.784 341.273 179.938 341.275 180.034 341.238C179.959 340.99 179.696 340.429 179.338 339.74C179.013 339.296 178.761 338.852 178.565 338.347L178.133 337.671L178.128 337.51L177.749 336.816L177.652 328.866C177.52 318.007 176.261 304.215 173.991 288.706C173.216 283.852 172.346 279.019 171.388 274.313C171.06 272.816 170.691 271.162 170.232 269.134C169.854 267.465 169.571 266.141 169.358 265.06C169.054 263.758 168.875 262.906 168.837 262.393C168.837 262.392 168.837 262.39 168.837 262.39C168.837 262.389 168.836 262.384 168.836 262.384C168.735 261.933 168.768 261.674 168.947 261.561C168.963 261.508 168.982 261.463 169.007 261.436C169.493 260.934 169.939 261.164 170.66 262.461C170.987 262.984 171.328 263.687 171.682 264.561C171.685 264.567 171.688 264.572 171.69 264.578C173.166 267.884 174.36 272.402 175.654 279.576C176.127 282.199 176.649 284.501 176.813 284.691C176.978 284.882 177.225 284.166 177.362 283.101C177.675 280.68 180.076 272.534 181.075 270.507C181.519 269.606 181.936 269.146 182.329 269.119C182.63 268.953 182.896 269.055 183.123 269.435C183.146 269.474 183.131 269.682 183.101 269.962C183.101 270.134 183.085 270.344 183.057 270.583C183.005 271.666 182.665 273.502 182.003 276.595C178.213 294.296 178.109 295.232 179.075 303.085C180.098 311.403 181.012 324.442 181.012 330.744C181.013 335.438 181.088 335.962 182.053 337.998C182.753 339.475 183.147 340.098 183.642 340.122C183.831 340.058 184.094 339.952 184.388 339.822C184.482 339.757 184.576 339.694 184.683 339.61C185.179 339.222 185.617 339.02 186.053 339.02L186.457 338.82L186.488 338.802L186.489 338.804L186.492 338.803L186.91 339.281C187.448 339.602 188.034 340.223 188.761 341.187C189.231 341.809 189.686 342.365 190.044 342.764C190.367 343.067 190.617 343.244 190.806 343.293C190.917 343.119 190.997 342.676 190.997 342.155C190.997 340.557 191.622 339.399 192.484 339.399C192.865 339.399 194.37 340.2 195.83 341.179C197.29 342.158 198.579 342.963 198.693 342.968C198.808 342.972 198.894 342.037 198.885 340.889C198.884 340.815 198.885 340.759 198.885 340.69C198.875 340.465 198.879 340.26 198.894 340.068C198.923 339.13 199.056 338.84 199.469 338.727C199.595 338.647 199.739 338.604 199.901 338.604C199.935 338.604 199.989 338.638 200.052 338.691C200.452 338.776 200.758 339.144 201.12 339.935C201.529 340.826 202.176 341.462 202.964 341.746C203.452 341.922 203.907 342.034 204.153 342.048C204.165 342.046 204.183 342.047 204.193 342.046C204.274 341.994 204.312 341.904 204.311 341.768C204.227 341.44 203.988 340.841 203.663 340.181C202.908 338.65 202.889 338.446 203.442 337.873C203.994 337.301 204.18 337.378 205.534 338.747C206.32 339.541 206.788 339.921 207.319 340.069C207.393 340.089 207.472 340.1 207.549 340.112C207.589 340.118 207.626 340.127 207.667 340.131C207.668 340.132 207.668 340.131 207.67 340.131C207.888 340.152 208.128 340.146 208.405 340.121L209.779 339.995L209.737 339.926L209.262 339.282L208.286 338.063C207.787 337.439 207.346 336.761 207.063 336.214C207.025 336.147 206.992 336.079 206.963 336.013C206.825 335.721 206.741 335.477 206.741 335.328C206.741 335.314 206.748 335.283 206.751 335.265C206.749 335.246 206.741 335.22 206.741 335.204C206.741 334.827 207.154 333.798 207.945 332.176C208.889 330.032 210.114 327.503 210.586 326.877C212.131 324.826 219.829 309.01 222.097 303.226C227.757 288.786 230.074 277.613 231.49 257.912C231.697 255.027 231.854 253.084 232.013 251.724C232.097 250.753 232.18 250.128 232.32 249.866C232.59 248.916 232.937 249.085 233.536 249.706C234.483 250.686 234.64 260.162 233.838 267.861C232.185 283.716 228.876 296.273 221.952 311.486C221.035 313.602 220.235 315.359 219.794 316.145C219.722 316.273 219.546 316.607 219.432 316.819C217.925 319.9 216.277 323.104 214.466 326.48C212.414 330.305 210.691 333.66 210.296 334.585C210.269 334.65 210.269 334.665 210.254 334.705C210.233 334.776 210.228 334.815 210.22 334.863C210.245 335.097 210.491 335.594 210.792 336.005C211.237 336.616 213.457 337.001 216.783 337.182C218.343 337.204 220.335 337.213 223.042 337.213C224.878 337.213 226.698 337.189 228.465 337.155C234.097 336.93 240.449 336.444 246.605 335.714C248.703 335.448 250.516 335.208 251.583 335.039C252.698 334.811 253.044 334.498 253.193 333.618C253.196 333.565 253.202 333.515 253.202 333.461C253.202 333.183 253.241 332.925 253.306 332.694C253.4 331.965 253.564 331.724 254.032 331.666C254.251 331.559 254.49 331.555 254.72 331.688C255.193 331.791 255.416 332.142 255.652 333.039C256.16 334.966 257.61 337.161 258.628 337.645C258.699 337.675 258.77 337.701 258.841 337.723C258.863 337.727 258.888 337.739 258.909 337.742C258.911 337.742 258.91 337.741 258.912 337.742C260.276 337.941 262.401 336.223 264.778 332.999C272.233 322.884 278.38 303.237 279.452 286.402C279.471 285.921 279.492 285.455 279.507 284.942L279.65 279.905C279.648 279.81 279.643 279.756 279.64 279.676C279.618 279.56 279.597 279.454 279.578 279.364L279.11 282.015C278.796 284.584 278.25 286.998 277.639 288.751C277.379 289.562 277.118 290.163 276.845 290.575C276.505 291.162 276.167 291.501 275.857 291.501C275.721 291.501 275.621 291.442 275.544 291.308C275.318 291.305 275.191 291.229 275.165 290.735C275.12 290.305 275.17 289.561 275.282 288.222C275.364 287.241 275.452 286.298 275.531 285.501C275.625 284.15 275.746 282.779 275.867 281.833C276.304 278.437 276.364 271.255 275.968 271.04C275.824 271.036 275.646 271.152 275.459 271.358C275.022 272.003 274.721 273.606 274.542 276.213C274.216 280.962 273.339 285.579 272.371 288.333C272.289 288.57 272.206 288.79 272.122 288.999C272.121 289.002 272.121 289.005 272.119 289.008C271.646 290.189 271.148 290.905 270.686 290.905C270.685 290.905 270.683 290.905 270.683 290.905C270.319 290.904 270.087 290.8 269.97 290.46C269.75 289.879 269.861 288.624 270.252 286.093C270.57 284.039 270.929 280.659 271.051 278.582L271.254 275.124C271.165 275.201 271.061 275.322 270.941 275.491L269.728 277.986C265.972 285.718 261.844 297.692 259.38 307.997C258.179 313.02 257.903 313.76 257.234 313.76C257.226 313.76 257.222 313.759 257.214 313.759C257.21 313.759 257.204 313.76 257.2 313.76C257.031 313.76 256.901 313.73 256.795 313.657C256.768 313.638 256.743 313.616 256.719 313.59C256.606 313.469 256.529 313.263 256.472 312.944C256.291 312.368 256.255 311.448 256.338 310.276C256.426 305.927 258.124 299.226 261.544 289.734L263.073 285.492C263.153 284.93 262.824 284.46 261.67 283.147L258.992 280.496C254.122 275.675 250.523 273.484 246.724 273.238C246.482 273.232 246.23 273.227 245.947 273.226C245.593 273.225 245.23 273.241 244.861 273.268C244.391 273.312 243.916 273.374 243.43 273.47C240.841 273.986 237.29 275.475 236.19 276.506C235.584 277.073 235.458 277.125 235.065 276.602C234.918 276.54 234.834 276.414 234.812 276.237C234.426 275.621 234.641 275.312 236.385 273.577C236.454 273.509 236.522 273.452 236.59 273.387C236.606 273.371 236.619 273.358 236.634 273.343C236.65 273.328 236.668 273.315 236.683 273.3C238.602 271.486 240.504 270.605 243.698 270.051C244.49 269.913 245.138 269.621 245.138 269.401C245.138 269.181 243.872 266.461 242.324 263.357C236.268 251.21 233.11 241.592 232.055 232.075C231.801 229.78 231.487 227.778 231.358 227.627C231.229 227.476 229.654 228.61 227.859 230.148C226.064 231.686 223.902 233.42 223.053 234.001C222.205 234.581 220.871 235.566 220.088 236.188C217.776 238.027 211.625 241.393 208.678 242.432C206.39 243.238 205.886 243.305 205.608 242.84C205.538 242.723 205.497 242.589 205.469 242.453C205.37 242.289 205.326 242.13 205.383 242.035C205.39 242.023 205.422 241.996 205.447 241.973C205.494 241.564 205.699 241.218 206 241.218C206.393 241.218 213.279 236.978 216.532 234.734C221.897 231.031 228.363 225.569 232.957 220.954C234.314 219.523 235.664 218.041 236.903 216.619C238.834 214.269 241.306 210.988 242.746 208.9C243.121 208.325 243.479 207.765 243.814 207.231C243.853 207.156 243.889 207.084 243.905 207.035C244.019 206.706 244.424 205.969 244.806 205.397L245.416 204.484C245.438 204.438 245.46 204.391 245.474 204.355L243.608 204.126C240.862 203.79 237.659 202.014 235.671 199.726C232.995 196.645 231.723 192.932 231.691 188.13C231.69 188.031 231.689 187.932 231.689 187.832C231.689 187.809 231.688 187.787 231.688 187.764C231.688 187.686 231.691 187.611 231.692 187.534C231.694 187.404 231.695 187.274 231.699 187.143C231.805 183.374 232.654 180.487 234.327 178.194C234.646 177.729 234.995 177.292 235.372 176.877C235.381 176.868 235.388 176.857 235.397 176.848C235.43 176.812 235.462 176.776 235.496 176.741C237.966 173.957 240.698 172.741 244.466 172.683C245.589 172.666 246.513 172.555 246.647 172.429C246.657 172.408 246.661 172.385 246.664 172.361C246.638 172.157 246.208 170.874 245.675 169.418C243 162.108 241.046 155.225 239.765 148.602C238.677 142.972 237.264 137.145 236.054 133.298C234.74 129.122 231.678 122.389 229.98 119.942C229.236 118.869 228.627 117.902 228.627 117.793C228.627 117.683 227.676 116.311 226.515 114.744C225.13 112.875 224.461 111.713 224.448 111.074C224.384 110.654 224.564 110.442 224.992 110.442C225.014 110.442 225.036 110.446 225.058 110.447C225.075 110.445 225.089 110.442 225.107 110.442C225.115 110.442 225.134 110.448 225.146 110.451C225.205 110.447 225.265 110.442 225.332 110.442C225.998 110.442 227.034 111.312 228.997 113.517L231.733 116.591L231.681 111.739L231.581 108.056C231.552 106.983 231.51 105.911 231.465 104.838C230.943 94.8596 229.497 82.0611 227.816 73.0513C227.722 72.5561 227.626 72.0621 227.529 71.5685C226.413 66.0226 223.692 55.5052 221.768 49.3454C219.69 42.6923 219.668 42.6606 215.152 39.4957C210.042 35.9156 205.768 34.2865 200.309 33.8392L198.927 33.7259L197.525 33.725ZM221.307 138.5C226.021 138.558 230.52 141.513 232.79 146.565C234.21 149.726 234.196 154.563 232.759 157.743C231.541 160.436 229.055 162.986 226.521 164.143C224.157 165.222 220.154 165.522 218.2 164.766C214.206 163.22 211.537 160.719 209.872 156.966C208.553 153.99 208.5 149.344 209.751 146.446C211.099 143.324 213.003 141.233 215.794 139.811C217.584 138.898 219.462 138.477 221.307 138.5ZM8.80108 139.578C8.16497 139.588 7.78773 139.636 7.73689 139.725C7.53939 140.075 8.9132 144.103 12.3236 153.172C14.3942 158.678 15.6691 161.808 19.9297 171.854C23.0326 179.17 29.8341 193.455 31.8577 196.906C32.798 198.51 33.5668 199.926 33.5668 200.054C33.5668 200.075 33.6088 200.158 33.6403 200.226C34.0781 200.997 34.4422 201.621 34.7307 202.092C34.8197 202.233 34.9017 202.368 34.9954 202.514L35.6824 203.586L36.3101 204.544L39.5514 204.587L42.003 204.468C47.8159 204.184 68.1841 204.771 80.3722 205.573C80.8247 205.603 81.0806 205.626 81.4799 205.654C85.9713 205.891 87.2037 206.024 87.646 206.503C87.7328 206.566 87.7965 206.633 87.8418 206.708C88.1525 207.22 87.7826 208.952 86.2729 214.061C82.4022 227.161 77.953 243.257 76.9764 247.563C76.8349 248.258 76.7945 248.627 76.8346 248.743C77.0616 248.892 78.6452 249.517 80.5132 250.19C92.5404 254.523 99.7443 257.389 101.359 258.484C101.439 258.539 101.527 258.624 101.616 258.722L102.116 258.963L102.431 260.001C102.6 260.345 102.753 260.712 102.87 261.076C103.223 262.177 103.628 263.079 103.77 263.079C103.912 263.079 104.677 261.156 105.47 258.806C106.904 254.559 108.175 249.949 107.971 249.738C107.912 249.677 104.591 247.998 100.59 246.007C96.5899 244.015 93.2429 242.309 93.1522 242.215C92.6504 241.696 93.1464 239.882 94.3064 237.996C95.0319 236.816 95.7423 235.582 95.885 235.254C96.1731 234.592 98.7226 230.804 103.071 224.579C104.653 222.315 106.206 220.074 106.522 219.598C106.839 219.123 107.929 217.54 108.944 216.081L110.358 214.047C110.6 213.636 110.729 213.371 110.741 213.257L110.028 210.727C108.489 205.258 107.365 197.319 107.31 191.53C107.294 189.89 107.111 185.419 106.903 181.593C106.695 177.767 106.412 172.434 106.273 169.742L106.038 165.192L106.016 164.845L103.832 163.704C102.629 163.075 99.5032 161.639 96.8847 160.512C75.8391 151.456 56.4585 145.78 33.9507 142.078C26.6598 140.879 14.1497 139.654 9.52091 139.579C9.25387 139.575 9.01312 139.574 8.80108 139.578ZM145.6 142.834C145.857 142.828 146.115 142.833 146.371 142.843C148.578 142.876 149.472 143.089 151.152 143.905C153.005 144.803 154.695 146.258 156.006 148.039C156.484 148.659 156.868 149.27 157.176 149.912C157.293 150.135 157.406 150.36 157.511 150.588C158.356 152.428 158.513 153.309 158.498 156.153C158.484 159.047 158.323 159.865 157.378 161.858C156.111 164.531 153.662 166.966 150.871 168.326C148.132 169.662 143.243 169.662 140.504 168.326C137.121 166.677 134.659 163.788 133.493 160.474C133.355 160.125 133.257 159.803 133.185 159.479C132.604 157.303 132.571 154.985 133.191 152.739C134.333 148.6 136.615 145.769 140.312 143.903C142.054 143.024 142.901 142.846 145.504 142.839C145.536 142.839 145.568 142.835 145.6 142.834ZM193.724 159.456C195.174 159.508 195.99 159.96 195.99 160.758C195.99 161.718 194.917 163.603 193.987 164.278C193.659 164.515 193.372 164.669 193.085 164.755C193.042 164.771 192.998 164.783 192.955 164.794C192.925 164.8 192.895 164.806 192.865 164.811C192.807 164.82 192.747 164.827 192.686 164.826C192.173 164.856 191.605 164.665 190.768 164.233C190.113 163.895 189.287 163.107 188.931 162.483C188.533 161.787 188.399 161.5 188.54 161.188C188.544 161.17 188.546 161.15 188.551 161.133C188.622 160.941 188.78 160.762 189.008 160.598C189.013 160.592 189.015 160.59 189.021 160.584C189.498 160.09 190.58 159.72 192.07 159.541C192.687 159.467 193.241 159.439 193.724 159.456ZM193.329 169.985C193.765 169.988 194.18 170.046 194.607 170.145C195.452 170.342 199.002 171.867 202.497 173.536C206.163 175.286 208.38 176.245 210.118 176.603C211.112 176.722 212.101 176.726 213.039 176.606C213.72 176.456 214.424 176.21 215.24 175.872C218.167 174.66 218.115 174.667 218.389 175.406C218.697 176.238 217.274 177.912 215.439 178.875C214.395 179.423 213.89 179.702 213.6 180.265C213.454 180.678 213.326 181.208 213.218 181.887C213.18 182.191 213.142 182.531 213.1 182.933C212.747 186.301 211.631 191.102 209.623 197.89C206.461 208.583 202.19 217.476 197.93 222.239C193.693 226.976 189.61 228.315 185 226.48C184.585 226.315 184.17 226.108 183.757 225.882C183.35 225.688 182.99 225.468 182.608 225.181C174.549 219.68 167.087 203.159 164.881 185.17C164.701 183.698 164.512 182.709 164.289 182.102C164.281 182.078 164.271 182.058 164.262 182.036C164.225 181.941 164.188 181.85 164.148 181.775C164.141 181.76 164.132 181.751 164.125 181.737C164.034 181.575 163.939 181.459 163.835 181.394C163.574 181.23 162.963 180.726 162.32 180.153C162.105 179.961 161.887 179.762 161.677 179.566C160.61 178.565 160.252 177.979 160.401 177.483C160.402 177.469 160.407 177.456 160.409 177.443C160.411 177.44 160.411 177.437 160.412 177.434C160.413 177.432 160.413 177.431 160.413 177.431C160.425 177.373 160.447 177.321 160.477 177.274C160.575 177.037 160.682 176.904 160.999 176.927C161.154 176.933 161.364 176.983 161.638 177.071C161.641 177.072 161.641 177.072 161.644 177.073C161.696 177.09 161.757 177.111 161.814 177.131C162.405 177.326 163.268 177.66 164.616 178.187C166.546 178.941 167.954 179.207 170.021 179.207C173.4 179.207 175.035 178.574 183.605 173.95C183.87 173.807 184.08 173.698 184.33 173.565C184.668 173.384 185.005 173.202 185.333 173.032C189.613 170.779 191.653 169.971 193.329 169.985ZM128.72 179.764C131.476 179.762 134.276 180.676 136.701 182.268C138.372 183.283 139.793 184.631 140.924 186.282C141.547 187.139 142.087 188.063 142.523 189.044C143.075 190.284 143.331 191.057 143.453 192.357C143.864 194.388 143.874 196.437 143.529 198.402C143.451 200.214 143.179 200.897 142.279 202.753C139.814 207.837 135.399 210.885 129.561 211.532C128.611 211.637 127.056 211.564 126.105 211.37C124.285 210.998 122.635 210.389 121.164 209.562C120.628 209.311 120.205 209.087 120.037 208.951C119.84 208.791 119.638 208.611 119.437 208.43C117.458 206.922 115.898 204.932 114.799 202.505C114.784 202.475 114.765 202.443 114.752 202.414C114.328 201.505 114.072 200.859 113.911 200.121C113.711 199.456 113.539 198.766 113.398 198.05C113.031 196.187 113.022 195.102 113.359 193.368C114.757 186.163 119.363 181.422 126.35 179.999C127.13 179.84 127.923 179.764 128.72 179.764Z" fill="#FFD73E"/>
<path d="M245.038 175.933C243.64 175.916 242.007 176.21 240.722 176.792C238.489 177.806 236.471 180.102 235.524 182.704C234.487 185.553 234.575 190.129 235.648 193.33C235.858 193.902 236.091 194.447 236.346 194.965C237.456 197.058 239.362 199.115 241.106 200.05C242.461 200.775 245.464 200.864 246.833 200.218C248.622 199.375 250.367 191.74 249.964 186.521C249.627 182.159 248.448 177.19 247.596 176.546C247.069 176.147 246.125 175.947 245.038 175.933ZM128.801 182.74C128.16 182.74 127.521 182.802 126.894 182.93C121.269 184.075 117.56 187.892 116.435 193.692C116.164 195.089 116.171 195.962 116.466 197.461C116.58 198.038 116.718 198.593 116.879 199.129C117.009 199.723 117.215 200.243 117.556 200.975C117.566 200.998 117.582 201.025 117.593 201.048C118.478 203.002 119.735 204.604 121.327 205.818C121.489 205.964 121.652 206.109 121.811 206.238C121.946 206.347 122.286 206.527 122.718 206.729C123.902 207.395 125.23 207.885 126.696 208.185C127.461 208.342 128.713 208.4 129.478 208.316C134.177 207.794 137.732 205.341 139.716 201.248C140.441 199.754 140.66 199.204 140.723 197.745C141 196.163 140.992 194.514 140.661 192.879C140.564 191.832 140.357 191.21 139.913 190.212C139.561 189.422 139.127 188.678 138.625 187.988C137.715 186.659 136.571 185.574 135.226 184.757C133.273 183.476 131.02 182.74 128.801 182.741L128.801 182.74Z" fill="#EE4E36"/>
<path d="M219.105 142.242C216.915 142.239 214.815 144.465 214.805 146.795C214.805 146.82 214.806 146.839 214.806 146.863C214.821 147.793 215.269 148.93 215.896 149.802C215.913 149.825 215.931 149.846 215.948 149.868C216.057 149.986 216.166 150.104 216.295 150.237C216.536 150.486 216.773 150.702 217.008 150.891C218.268 151.627 220.485 151.495 221.743 150.568C223.311 149.412 223.888 147.211 223.12 145.31C222.483 143.731 220.537 142.245 219.105 142.242ZM146.188 146.23C146.069 146.231 145.954 146.239 145.84 146.247C142.674 146.587 140.958 149.848 142.388 152.844C142.767 153.552 143.312 154.199 143.927 154.689C145.451 155.716 147.524 155.621 149.11 154.25C150.186 153.321 150.423 152.81 150.584 151.08C150.61 150.799 150.629 150.563 150.642 150.347C150.581 149.651 150.441 149.039 150.219 148.518C150.031 148.262 149.777 147.984 149.422 147.616C148.87 147.045 148.472 146.702 148.046 146.496C147.507 146.314 146.889 146.222 146.188 146.23Z" fill="white"/>
<path d="M188.273 189.914C181.911 189.977 176.287 193.844 171.039 199.656C174.176 210.205 178.78 218.696 183.623 222.342C183.97 222.629 184.297 222.848 184.665 223.043C185.04 223.269 185.416 223.475 185.792 223.641C189.971 225.476 193.674 224.137 197.515 219.4C200.814 215.331 204.118 208.243 206.799 199.6C199.908 192.683 193.812 189.86 188.273 189.914Z" fill="#EE7277"/>
</g>
<defs>
<filter id="filter0_d_31_40" x="0" y="0" width="287" height="357" filterUnits="userSpaceOnUse" color-interpolation-filters="sRGB">
<feFlood flood-opacity="0" result="BackgroundImageFix"/>
<feColorMatrix in="SourceAlpha" type="matrix" values="0 0 0 0 0 0 0 0 0 0 0 0 0 0 0 0 0 0 127 0" result="hardAlpha"/>
<feOffset dy="4"/>
<feGaussianBlur stdDeviation="2"/>
<feComposite in2="hardAlpha" operator="out"/>
<feColorMatrix type="matrix" values="0 0 0 0 0 0 0 0 0 0 0 0 0 0 0 0 0 0 0.5 0"/>
<feBlend mode="normal" in2="BackgroundImageFix" result="effect1_dropShadow_31_40"/>
<feBlend mode="normal" in="SourceGraphic" in2="effect1_dropShadow_31_40" result="shape"/>
</filter>
</defs>
</svg>
