<svg width="250" height="250" viewBox="0 0 250 250" fill="none" xmlns="http://www.w3.org/2000/svg">
<g clip-path="url(#clip0_56_283)">
<path d="M-2.14521e-06 124.724C0.167556 55.5031 56.242 -0.291133 125.356 -0.00820607C194.527 0.26648 250.14 56.0799 250 125.078C249.86 194.077 193.772 249.901 124.845 249.665C55.6486 249.431 -0.164814 193.58 -2.14521e-06 124.724Z" fill="#FBFFF6" fill-opacity="0.5"/>
<path d="M47.5206 134.236C57.3269 134.236 67.136 134.294 76.9422 134.19C78.9502 134.168 79.744 134.739 80.2385 136.739C85.4081 156.983 103.861 171.132 125.012 171.182C135.244 171.211 145.196 167.848 153.313 161.619C161.43 155.39 167.253 146.646 169.871 136.755C170.421 134.711 171.182 134.19 173.168 134.198C192.884 134.262 212.602 134.262 232.321 134.198C234.519 134.198 234.936 134.61 234.694 136.92C229.995 181.718 197.301 220.85 151.605 231.739C114.184 240.652 80.461 232.244 51.4624 206.819C31.685 189.489 20.2333 167.377 15.9125 141.518C14.6956 134.234 14.6792 134.239 22.1369 134.239L47.5206 134.236Z" fill="white"/>
<path d="M202.361 115.338C192.764 115.338 183.163 115.266 173.569 115.39C171.278 115.42 170.369 114.64 169.748 112.467C164.312 93.4096 147.614 79.6121 128.894 78.5766C107.803 77.4064 90.0036 88.2675 82.0103 107.182C81.7713 107.751 81.5543 108.333 81.3565 108.916C79.159 115.338 79.159 115.338 72.182 115.338C54.4291 115.338 36.6788 115.297 18.9259 115.379C16.2861 115.379 15.1242 115.126 15.5994 111.885C21.8623 69.1191 44.7766 38.7938 84.7242 22.612C127.776 5.1585 175.398 16.7365 206.666 50.9404C222.342 68.0891 231.511 88.3801 234.409 111.459C234.892 115.335 234.859 115.346 230.857 115.349C221.357 115.343 211.858 115.34 202.361 115.338Z" fill="#FBFFF6" fill-opacity="0.5"/>
<path d="M125.29 157.283C107.674 157.439 92.745 143.032 92.6021 125.738C92.4511 107.259 106.683 92.5006 124.754 92.3825C142.568 92.2699 157.296 106.74 157.521 124.578C157.752 142.304 143.142 157.137 125.29 157.283Z" fill="white"/>
<path d="M125.284 108.935C134.264 109.037 141.092 116.134 140.983 125.249C140.875 134 133.731 140.848 124.776 140.782C122.688 140.768 120.624 140.343 118.701 139.529C116.778 138.716 115.035 137.531 113.571 136.043C112.107 134.554 110.952 132.791 110.171 130.855C109.39 128.919 108.999 126.847 109.02 124.76C109.135 115.755 116.247 108.833 125.284 108.935Z" fill="#FBFFF6" fill-opacity="0.5"/>
</g>
<defs>
<clipPath id="clip0_56_283">
<rect width="250" height="249.676" fill="white"/>
</clipPath>
</defs>
</svg>
